<svg width="343" height="61" viewBox="0 0 343 61" fill="none" xmlns="http://www.w3.org/2000/svg">
<g filter="url(#filter0_d_1_165)">
<rect x="4" width="335" height="51" rx="12" fill="#2819D2" shape-rendering="crispEdges"/>
<path d="M141.344 25V25.625C141.344 26.4844 141.232 27.2552 141.008 27.9375C140.784 28.6198 140.464 29.2005 140.047 29.6797C139.635 30.1589 139.141 30.526 138.562 30.7812C137.984 31.0312 137.344 31.1562 136.641 31.1562C135.943 31.1562 135.305 31.0312 134.727 30.7812C134.154 30.526 133.656 30.1589 133.234 29.6797C132.812 29.2005 132.484 28.6198 132.25 27.9375C132.021 27.2552 131.906 26.4844 131.906 25.625V25C131.906 24.1406 132.021 23.3724 132.25 22.6953C132.479 22.013 132.802 21.4323 133.219 20.9531C133.641 20.4688 134.138 20.1016 134.711 19.8516C135.289 19.5964 135.927 19.4688 136.625 19.4688C137.328 19.4688 137.969 19.5964 138.547 19.8516C139.125 20.1016 139.622 20.4688 140.039 20.9531C140.456 21.4323 140.776 22.013 141 22.6953C141.229 23.3724 141.344 24.1406 141.344 25ZM139.383 25.625V24.9844C139.383 24.349 139.32 23.7891 139.195 23.3047C139.076 22.8151 138.896 22.4062 138.656 22.0781C138.422 21.7448 138.133 21.4948 137.789 21.3281C137.445 21.1562 137.057 21.0703 136.625 21.0703C136.193 21.0703 135.807 21.1562 135.469 21.3281C135.13 21.4948 134.841 21.7448 134.602 22.0781C134.367 22.4062 134.188 22.8151 134.062 23.3047C133.938 23.7891 133.875 24.349 133.875 24.9844V25.625C133.875 26.2604 133.938 26.8229 134.062 27.3125C134.188 27.8021 134.37 28.2161 134.609 28.5547C134.854 28.888 135.146 29.1406 135.484 29.3125C135.823 29.4792 136.208 29.5625 136.641 29.5625C137.078 29.5625 137.466 29.4792 137.805 29.3125C138.143 29.1406 138.43 28.888 138.664 28.5547C138.898 28.2161 139.076 27.8021 139.195 27.3125C139.32 26.8229 139.383 26.2604 139.383 25.625ZM147.039 22.5469V31H145.148V22.5469H147.039ZM149.812 22.5469V24.0312H142.422V22.5469H149.812ZM156.742 22.5469V24.0469H152.57V22.5469H156.742ZM153.016 22.5469V31H151.133V22.5469H153.016ZM158.219 22.5469V31H156.328V22.5469H158.219ZM162.102 24.1719V34.25H160.219V22.5469H161.953L162.102 24.1719ZM167.609 26.6953V26.8594C167.609 27.474 167.536 28.0443 167.391 28.5703C167.25 29.0911 167.039 29.5469 166.758 29.9375C166.482 30.3229 166.141 30.6224 165.734 30.8359C165.328 31.0495 164.859 31.1562 164.328 31.1562C163.802 31.1562 163.341 31.0599 162.945 30.8672C162.555 30.6693 162.224 30.3906 161.953 30.0312C161.682 29.6719 161.464 29.25 161.297 28.7656C161.135 28.276 161.021 27.7396 160.953 27.1562V26.5234C161.021 25.9036 161.135 25.3411 161.297 24.8359C161.464 24.3307 161.682 23.8958 161.953 23.5312C162.224 23.1667 162.555 22.8854 162.945 22.6875C163.336 22.4896 163.792 22.3906 164.312 22.3906C164.844 22.3906 165.315 22.4948 165.727 22.7031C166.138 22.9062 166.484 23.1979 166.766 23.5781C167.047 23.9531 167.258 24.4062 167.398 24.9375C167.539 25.4635 167.609 26.0495 167.609 26.6953ZM165.727 26.8594V26.6953C165.727 26.3047 165.69 25.9427 165.617 25.6094C165.544 25.2708 165.43 24.974 165.273 24.7188C165.117 24.4635 164.917 24.2656 164.672 24.125C164.432 23.9792 164.143 23.9062 163.805 23.9062C163.471 23.9062 163.185 23.9635 162.945 24.0781C162.706 24.1875 162.505 24.3411 162.344 24.5391C162.182 24.737 162.057 24.9688 161.969 25.2344C161.88 25.4948 161.818 25.7786 161.781 26.0859V27.6016C161.844 27.9766 161.951 28.3203 162.102 28.6328C162.253 28.9453 162.466 29.1953 162.742 29.3828C163.023 29.5651 163.383 29.6562 163.82 29.6562C164.159 29.6562 164.448 29.5833 164.688 29.4375C164.927 29.2917 165.122 29.0911 165.273 28.8359C165.43 28.5755 165.544 28.276 165.617 27.9375C165.69 27.599 165.727 27.2396 165.727 26.8594ZM173.977 29.3047V25.2734C173.977 24.9714 173.922 24.7109 173.812 24.4922C173.703 24.2734 173.536 24.1042 173.312 23.9844C173.094 23.8646 172.818 23.8047 172.484 23.8047C172.177 23.8047 171.911 23.8568 171.688 23.9609C171.464 24.0651 171.289 24.2057 171.164 24.3828C171.039 24.5599 170.977 24.7604 170.977 24.9844H169.102C169.102 24.651 169.182 24.3281 169.344 24.0156C169.505 23.7031 169.74 23.4245 170.047 23.1797C170.354 22.9349 170.721 22.7422 171.148 22.6016C171.576 22.4609 172.055 22.3906 172.586 22.3906C173.221 22.3906 173.784 22.4974 174.273 22.7109C174.768 22.9245 175.156 23.2474 175.438 23.6797C175.724 24.1068 175.867 24.6432 175.867 25.2891V29.0469C175.867 29.4323 175.893 29.7786 175.945 30.0859C176.003 30.388 176.083 30.651 176.188 30.875V31H174.258C174.169 30.7969 174.099 30.5391 174.047 30.2266C174 29.9089 173.977 29.6016 173.977 29.3047ZM174.25 25.8594L174.266 27.0234H172.914C172.565 27.0234 172.258 27.0573 171.992 27.125C171.727 27.1875 171.505 27.2812 171.328 27.4062C171.151 27.5312 171.018 27.6823 170.93 27.8594C170.841 28.0365 170.797 28.237 170.797 28.4609C170.797 28.6849 170.849 28.8906 170.953 29.0781C171.057 29.2604 171.208 29.4036 171.406 29.5078C171.609 29.612 171.854 29.6641 172.141 29.6641C172.526 29.6641 172.862 29.5859 173.148 29.4297C173.44 29.2682 173.669 29.0729 173.836 28.8438C174.003 28.6094 174.091 28.388 174.102 28.1797L174.711 29.0156C174.648 29.2292 174.542 29.4583 174.391 29.7031C174.24 29.9479 174.042 30.1823 173.797 30.4062C173.557 30.625 173.268 30.8047 172.93 30.9453C172.596 31.0859 172.211 31.1562 171.773 31.1562C171.221 31.1562 170.729 31.0469 170.297 30.8281C169.865 30.6042 169.526 30.3047 169.281 29.9297C169.036 29.5495 168.914 29.1198 168.914 28.6406C168.914 28.1927 168.997 27.7969 169.164 27.4531C169.336 27.1042 169.586 26.8125 169.914 26.5781C170.247 26.3438 170.654 26.1667 171.133 26.0469C171.612 25.9219 172.159 25.8594 172.773 25.8594H174.25ZM181.945 27.3828H179.242L179.227 26.0547H181.445C181.81 26.0547 182.109 26.0182 182.344 25.9453C182.583 25.8724 182.76 25.763 182.875 25.6172C182.99 25.4661 183.047 25.2839 183.047 25.0703C183.047 24.8932 183.013 24.7396 182.945 24.6094C182.878 24.474 182.773 24.3646 182.633 24.2812C182.497 24.1927 182.326 24.1302 182.117 24.0938C181.914 24.0521 181.677 24.0312 181.406 24.0312H179.867V31H177.984V22.5469H181.406C181.948 22.5469 182.435 22.5938 182.867 22.6875C183.305 22.7812 183.677 22.9245 183.984 23.1172C184.292 23.3099 184.526 23.5547 184.688 23.8516C184.854 24.1432 184.938 24.487 184.938 24.8828C184.938 25.1432 184.88 25.388 184.766 25.6172C184.656 25.8464 184.492 26.0495 184.273 26.2266C184.055 26.4036 183.786 26.5495 183.469 26.6641C183.151 26.7734 182.786 26.8411 182.375 26.8672L181.945 27.3828ZM181.945 31H178.695L179.445 29.5156H181.945C182.279 29.5156 182.555 29.474 182.773 29.3906C182.992 29.3073 183.154 29.1875 183.258 29.0312C183.367 28.8698 183.422 28.6797 183.422 28.4609C183.422 28.237 183.37 28.0443 183.266 27.8828C183.161 27.7214 183 27.599 182.781 27.5156C182.568 27.4271 182.289 27.3828 181.945 27.3828H179.797L179.812 26.0547H182.367L182.906 26.5703C183.443 26.6068 183.888 26.7214 184.242 26.9141C184.596 27.1068 184.862 27.349 185.039 27.6406C185.216 27.9323 185.305 28.25 185.305 28.5938C185.305 28.9896 185.229 29.3385 185.078 29.6406C184.932 29.9427 184.714 30.1953 184.422 30.3984C184.135 30.5964 183.784 30.7474 183.367 30.8516C182.951 30.9505 182.477 31 181.945 31ZM188.875 28.25L192.195 22.5469H194.078V31H192.195V25.2891L188.875 31H186.992V22.5469H188.875V28.25ZM199.992 22.5469V31H198.102V22.5469H199.992ZM202.766 22.5469V24.0312H195.375V22.5469H202.766ZM205.422 25.2344H207.914C208.643 25.2344 209.263 25.3568 209.773 25.6016C210.284 25.8464 210.672 26.1875 210.938 26.625C211.208 27.0573 211.344 27.5521 211.344 28.1094C211.344 28.5208 211.268 28.9036 211.117 29.2578C210.966 29.6068 210.742 29.9115 210.445 30.1719C210.154 30.4323 209.794 30.6354 209.367 30.7812C208.945 30.9271 208.461 31 207.914 31H204.172V22.5469H206.062V29.5078H207.914C208.289 29.5078 208.589 29.4427 208.812 29.3125C209.036 29.1823 209.198 29.013 209.297 28.8047C209.401 28.5964 209.453 28.375 209.453 28.1406C209.453 27.901 209.401 27.6745 209.297 27.4609C209.198 27.2474 209.036 27.0729 208.812 26.9375C208.589 26.8021 208.289 26.7344 207.914 26.7344H205.422V25.2344Z" fill="white"/>
</g>
<defs>
<filter id="filter0_d_1_165" x="0" y="0" width="343" height="61" filterUnits="userSpaceOnUse" color-interpolation-filters="sRGB">
<feFlood flood-opacity="0" result="BackgroundImageFix"/>
<feColorMatrix in="SourceAlpha" type="matrix" values="0 0 0 0 0 0 0 0 0 0 0 0 0 0 0 0 0 0 127 0" result="hardAlpha"/>
<feOffset dy="6"/>
<feGaussianBlur stdDeviation="2"/>
<feComposite in2="hardAlpha" operator="out"/>
<feColorMatrix type="matrix" values="0 0 0 0 0 0 0 0 0 0 0 0 0 0 0 0 0 0 0.25 0"/>
<feBlend mode="normal" in2="BackgroundImageFix" result="effect1_dropShadow_1_165"/>
<feBlend mode="normal" in="SourceGraphic" in2="effect1_dropShadow_1_165" result="shape"/>
</filter>
</defs>
</svg>
