<svg width="335" height="51" viewBox="0 0 335 51" fill="none" xmlns="http://www.w3.org/2000/svg">
<rect width="335" height="51" rx="12" fill="#1976D2"/>
<path d="M137.344 25V25.625C137.344 26.4844 137.232 27.2552 137.008 27.9375C136.784 28.6198 136.464 29.2005 136.047 29.6797C135.635 30.1589 135.141 30.526 134.562 30.7812C133.984 31.0312 133.344 31.1562 132.641 31.1562C131.943 31.1562 131.305 31.0312 130.727 30.7812C130.154 30.526 129.656 30.1589 129.234 29.6797C128.812 29.2005 128.484 28.6198 128.25 27.9375C128.021 27.2552 127.906 26.4844 127.906 25.625V25C127.906 24.1406 128.021 23.3724 128.25 22.6953C128.479 22.013 128.802 21.4323 129.219 20.9531C129.641 20.4688 130.138 20.1016 130.711 19.8516C131.289 19.5964 131.927 19.4688 132.625 19.4688C133.328 19.4688 133.969 19.5964 134.547 19.8516C135.125 20.1016 135.622 20.4688 136.039 20.9531C136.456 21.4323 136.776 22.013 137 22.6953C137.229 23.3724 137.344 24.1406 137.344 25ZM135.383 25.625V24.9844C135.383 24.349 135.32 23.7891 135.195 23.3047C135.076 22.8151 134.896 22.4062 134.656 22.0781C134.422 21.7448 134.133 21.4948 133.789 21.3281C133.445 21.1562 133.057 21.0703 132.625 21.0703C132.193 21.0703 131.807 21.1562 131.469 21.3281C131.13 21.4948 130.841 21.7448 130.602 22.0781C130.367 22.4062 130.188 22.8151 130.062 23.3047C129.938 23.7891 129.875 24.349 129.875 24.9844V25.625C129.875 26.2604 129.938 26.8229 130.062 27.3125C130.188 27.8021 130.37 28.2161 130.609 28.5547C130.854 28.888 131.146 29.1406 131.484 29.3125C131.823 29.4792 132.208 29.5625 132.641 29.5625C133.078 29.5625 133.466 29.4792 133.805 29.3125C134.143 29.1406 134.43 28.888 134.664 28.5547C134.898 28.2161 135.076 27.8021 135.195 27.3125C135.32 26.8229 135.383 26.2604 135.383 25.625ZM143.039 22.5469V31H141.148V22.5469H143.039ZM145.812 22.5469V24.0312H138.422V22.5469H145.812ZM152.742 22.5469V24.0469H148.57V22.5469H152.742ZM149.016 22.5469V31H147.133V22.5469H149.016ZM154.219 22.5469V31H152.328V22.5469H154.219ZM158.102 24.1719V34.25H156.219V22.5469H157.953L158.102 24.1719ZM163.609 26.6953V26.8594C163.609 27.474 163.536 28.0443 163.391 28.5703C163.25 29.0911 163.039 29.5469 162.758 29.9375C162.482 30.3229 162.141 30.6224 161.734 30.8359C161.328 31.0495 160.859 31.1562 160.328 31.1562C159.802 31.1562 159.341 31.0599 158.945 30.8672C158.555 30.6693 158.224 30.3906 157.953 30.0312C157.682 29.6719 157.464 29.25 157.297 28.7656C157.135 28.276 157.021 27.7396 156.953 27.1562V26.5234C157.021 25.9036 157.135 25.3411 157.297 24.8359C157.464 24.3307 157.682 23.8958 157.953 23.5312C158.224 23.1667 158.555 22.8854 158.945 22.6875C159.336 22.4896 159.792 22.3906 160.312 22.3906C160.844 22.3906 161.315 22.4948 161.727 22.7031C162.138 22.9062 162.484 23.1979 162.766 23.5781C163.047 23.9531 163.258 24.4062 163.398 24.9375C163.539 25.4635 163.609 26.0495 163.609 26.6953ZM161.727 26.8594V26.6953C161.727 26.3047 161.69 25.9427 161.617 25.6094C161.544 25.2708 161.43 24.974 161.273 24.7188C161.117 24.4635 160.917 24.2656 160.672 24.125C160.432 23.9792 160.143 23.9062 159.805 23.9062C159.471 23.9062 159.185 23.9635 158.945 24.0781C158.706 24.1875 158.505 24.3411 158.344 24.5391C158.182 24.737 158.057 24.9688 157.969 25.2344C157.88 25.4948 157.818 25.7786 157.781 26.0859V27.6016C157.844 27.9766 157.951 28.3203 158.102 28.6328C158.253 28.9453 158.466 29.1953 158.742 29.3828C159.023 29.5651 159.383 29.6562 159.82 29.6562C160.159 29.6562 160.448 29.5833 160.688 29.4375C160.927 29.2917 161.122 29.0911 161.273 28.8359C161.43 28.5755 161.544 28.276 161.617 27.9375C161.69 27.599 161.727 27.2396 161.727 26.8594ZM169.977 29.3047V25.2734C169.977 24.9714 169.922 24.7109 169.812 24.4922C169.703 24.2734 169.536 24.1042 169.312 23.9844C169.094 23.8646 168.818 23.8047 168.484 23.8047C168.177 23.8047 167.911 23.8568 167.688 23.9609C167.464 24.0651 167.289 24.2057 167.164 24.3828C167.039 24.5599 166.977 24.7604 166.977 24.9844H165.102C165.102 24.651 165.182 24.3281 165.344 24.0156C165.505 23.7031 165.74 23.4245 166.047 23.1797C166.354 22.9349 166.721 22.7422 167.148 22.6016C167.576 22.4609 168.055 22.3906 168.586 22.3906C169.221 22.3906 169.784 22.4974 170.273 22.7109C170.768 22.9245 171.156 23.2474 171.438 23.6797C171.724 24.1068 171.867 24.6432 171.867 25.2891V29.0469C171.867 29.4323 171.893 29.7786 171.945 30.0859C172.003 30.388 172.083 30.651 172.188 30.875V31H170.258C170.169 30.7969 170.099 30.5391 170.047 30.2266C170 29.9089 169.977 29.6016 169.977 29.3047ZM170.25 25.8594L170.266 27.0234H168.914C168.565 27.0234 168.258 27.0573 167.992 27.125C167.727 27.1875 167.505 27.2812 167.328 27.4062C167.151 27.5312 167.018 27.6823 166.93 27.8594C166.841 28.0365 166.797 28.237 166.797 28.4609C166.797 28.6849 166.849 28.8906 166.953 29.0781C167.057 29.2604 167.208 29.4036 167.406 29.5078C167.609 29.612 167.854 29.6641 168.141 29.6641C168.526 29.6641 168.862 29.5859 169.148 29.4297C169.44 29.2682 169.669 29.0729 169.836 28.8438C170.003 28.6094 170.091 28.388 170.102 28.1797L170.711 29.0156C170.648 29.2292 170.542 29.4583 170.391 29.7031C170.24 29.9479 170.042 30.1823 169.797 30.4062C169.557 30.625 169.268 30.8047 168.93 30.9453C168.596 31.0859 168.211 31.1562 167.773 31.1562C167.221 31.1562 166.729 31.0469 166.297 30.8281C165.865 30.6042 165.526 30.3047 165.281 29.9297C165.036 29.5495 164.914 29.1198 164.914 28.6406C164.914 28.1927 164.997 27.7969 165.164 27.4531C165.336 27.1042 165.586 26.8125 165.914 26.5781C166.247 26.3438 166.654 26.1667 167.133 26.0469C167.612 25.9219 168.159 25.8594 168.773 25.8594H170.25ZM177.945 27.3828H175.242L175.227 26.0547H177.445C177.81 26.0547 178.109 26.0182 178.344 25.9453C178.583 25.8724 178.76 25.763 178.875 25.6172C178.99 25.4661 179.047 25.2839 179.047 25.0703C179.047 24.8932 179.013 24.7396 178.945 24.6094C178.878 24.474 178.773 24.3646 178.633 24.2812C178.497 24.1927 178.326 24.1302 178.117 24.0938C177.914 24.0521 177.677 24.0312 177.406 24.0312H175.867V31H173.984V22.5469H177.406C177.948 22.5469 178.435 22.5938 178.867 22.6875C179.305 22.7812 179.677 22.9245 179.984 23.1172C180.292 23.3099 180.526 23.5547 180.688 23.8516C180.854 24.1432 180.938 24.487 180.938 24.8828C180.938 25.1432 180.88 25.388 180.766 25.6172C180.656 25.8464 180.492 26.0495 180.273 26.2266C180.055 26.4036 179.786 26.5495 179.469 26.6641C179.151 26.7734 178.786 26.8411 178.375 26.8672L177.945 27.3828ZM177.945 31H174.695L175.445 29.5156H177.945C178.279 29.5156 178.555 29.474 178.773 29.3906C178.992 29.3073 179.154 29.1875 179.258 29.0312C179.367 28.8698 179.422 28.6797 179.422 28.4609C179.422 28.237 179.37 28.0443 179.266 27.8828C179.161 27.7214 179 27.599 178.781 27.5156C178.568 27.4271 178.289 27.3828 177.945 27.3828H175.797L175.812 26.0547H178.367L178.906 26.5703C179.443 26.6068 179.888 26.7214 180.242 26.9141C180.596 27.1068 180.862 27.349 181.039 27.6406C181.216 27.9323 181.305 28.25 181.305 28.5938C181.305 28.9896 181.229 29.3385 181.078 29.6406C180.932 29.9427 180.714 30.1953 180.422 30.3984C180.135 30.5964 179.784 30.7474 179.367 30.8516C178.951 30.9505 178.477 31 177.945 31ZM184.875 28.25L188.195 22.5469H190.078V31H188.195V25.2891L184.875 31H182.992V22.5469H184.875V28.25ZM195.992 22.5469V31H194.102V22.5469H195.992ZM198.766 22.5469V24.0312H191.375V22.5469H198.766ZM201.422 25.2344H203.914C204.643 25.2344 205.263 25.3568 205.773 25.6016C206.284 25.8464 206.672 26.1875 206.938 26.625C207.208 27.0573 207.344 27.5521 207.344 28.1094C207.344 28.5208 207.268 28.9036 207.117 29.2578C206.966 29.6068 206.742 29.9115 206.445 30.1719C206.154 30.4323 205.794 30.6354 205.367 30.7812C204.945 30.9271 204.461 31 203.914 31H200.172V22.5469H202.062V29.5078H203.914C204.289 29.5078 204.589 29.4427 204.812 29.3125C205.036 29.1823 205.198 29.013 205.297 28.8047C205.401 28.5964 205.453 28.375 205.453 28.1406C205.453 27.901 205.401 27.6745 205.297 27.4609C205.198 27.2474 205.036 27.0729 204.812 26.9375C204.589 26.8021 204.289 26.7344 203.914 26.7344H201.422V25.2344Z" fill="white"/>
</svg>
