<svg width="18" height="18" viewBox="0 0 18 18" fill="none" xmlns="http://www.w3.org/2000/svg">
<path fill-rule="evenodd" clip-rule="evenodd" d="M5.7427 14.6191C5.96021 14.6191 6.1358 14.7955 6.1358 15.0122C6.1358 15.2297 5.96021 15.4061 5.7427 15.4061C5.5252 15.4061 5.34961 15.2297 5.34961 15.0122C5.34961 14.7955 5.5252 14.6191 5.7427 14.6191Z" fill="#B1ABAB" stroke="#B1ABAB" stroke-width="1.5" stroke-linecap="square"/>
<path fill-rule="evenodd" clip-rule="evenodd" d="M13.8931 14.6191C14.1106 14.6191 14.2869 14.7955 14.2869 15.0122C14.2869 15.2297 14.1106 15.4061 13.8931 15.4061C13.6756 15.4061 13.5 15.2297 13.5 15.0122C13.5 14.7955 13.6756 14.6191 13.8931 14.6191Z" fill="#B1ABAB" stroke="#B1ABAB" stroke-width="1.5" stroke-linecap="square"/>
<path d="M4.21887 4.8889H15.9375L14.9855 12.1149H4.87016L3.91239 2.59375H2.0625" stroke="#B1ABAB" stroke-width="1.5" stroke-linecap="round" stroke-linejoin="round"/>
</svg>
