<svg width="45" height="46" viewBox="0 0 45 46" fill="none" xmlns="http://www.w3.org/2000/svg">
<path d="M22.5495 45.0132H22.4505C10.0714 45.0132 0 34.9389 0 22.5561V22.4571C0 10.0744 10.0714 0 22.4505 0H22.5495C34.9286 0 45 10.0744 45 22.4571V22.5561C45 34.9389 34.9286 45.0132 22.5495 45.0132ZM22.4505 1.52365C10.9107 1.52365 1.5232 10.9139 1.5232 22.4571V22.5561C1.5232 34.0993 10.9107 43.4896 22.4505 43.4896H22.5495C34.0893 43.4896 43.4768 34.0993 43.4768 22.5561V22.4571C43.4768 10.9139 34.0893 1.52365 22.5495 1.52365H22.4505Z" fill="url(#paint0_linear_4111_1631)"/>
<path d="M29.2273 9.60938H15.7744C12.0577 9.60938 9.03418 12.6338 9.03418 16.3515V28.6627C9.03418 32.3804 12.0577 35.4048 15.7744 35.4048H29.2273C32.9439 35.4048 35.9675 32.3804 35.9675 28.6627V16.3515C35.9675 12.6338 32.9439 9.60938 29.2273 9.60938ZM11.4119 16.3515C11.4119 13.9457 13.3692 11.9878 15.7744 11.9878H29.2273C31.6324 11.9878 33.5897 13.9457 33.5897 16.3515V28.6627C33.5897 31.0685 31.6324 33.0264 29.2273 33.0264H15.7744C13.3692 33.0264 11.4119 31.0685 11.4119 28.6627V16.3515Z" fill="url(#paint1_linear_4111_1631)"/>
<path d="M22.5008 28.7771C25.957 28.7771 28.7703 25.9644 28.7703 22.5057C28.7703 19.047 25.9585 16.2344 22.5008 16.2344C19.0432 16.2344 16.2313 19.047 16.2313 22.5057C16.2313 25.9644 19.0432 28.7771 22.5008 28.7771ZM22.5008 18.6143C24.647 18.6143 26.3926 20.3604 26.3926 22.5073C26.3926 24.6541 24.647 26.4002 22.5008 26.4002C20.3546 26.4002 18.609 24.6541 18.609 22.5073C18.609 20.3604 20.3546 18.6143 22.5008 18.6143Z" fill="url(#paint2_linear_4111_1631)"/>
<path d="M29.3506 17.2476C30.2813 17.2476 31.0398 16.4904 31.0398 15.5579C31.0398 14.6254 30.2828 13.8682 29.3506 13.8682C28.4184 13.8682 27.6614 14.6254 27.6614 15.5579C27.6614 16.4904 28.4184 17.2476 29.3506 17.2476Z" fill="url(#paint3_linear_4111_1631)"/>
<defs>
<linearGradient id="paint0_linear_4111_1631" x1="6.58329" y1="38.428" x2="38.4261" y2="6.59459" gradientUnits="userSpaceOnUse">
<stop stop-color="#FAAD4F"/>
<stop offset="0.35" stop-color="#DD2A7B"/>
<stop offset="0.62" stop-color="#9537B0"/>
<stop offset="1" stop-color="#515BD4"/>
</linearGradient>
<linearGradient id="paint1_linear_4111_1631" x1="11.2961" y1="33.7136" x2="33.7106" y2="11.3072" gradientUnits="userSpaceOnUse">
<stop stop-color="#FAAD4F"/>
<stop offset="0.35" stop-color="#DD2A7B"/>
<stop offset="0.62" stop-color="#9537B0"/>
<stop offset="1" stop-color="#515BD4"/>
</linearGradient>
<linearGradient id="paint2_linear_4111_1631" x1="18.0698" y1="26.9396" x2="26.9329" y2="18.0776" gradientUnits="userSpaceOnUse">
<stop stop-color="#FAAD4F"/>
<stop offset="0.35" stop-color="#DD2A7B"/>
<stop offset="0.62" stop-color="#9537B0"/>
<stop offset="1" stop-color="#515BD4"/>
</linearGradient>
<linearGradient id="paint3_linear_4111_1631" x1="28.1564" y1="16.7524" x2="30.5455" y2="14.364" gradientUnits="userSpaceOnUse">
<stop stop-color="#FAAD4F"/>
<stop offset="0.35" stop-color="#DD2A7B"/>
<stop offset="0.62" stop-color="#9537B0"/>
<stop offset="1" stop-color="#515BD4"/>
</linearGradient>
</defs>
</svg>
