<svg width="24" height="24" viewBox="0 0 24 24" fill="none" xmlns="http://www.w3.org/2000/svg">
<path d="M22.9565 10.957H1.04346C0.467168 10.957 0 11.1809 0 11.457C0 11.7332 0.467168 11.957 1.04346 11.957H22.9565C23.5328 11.957 24 11.7332 24 11.457C24 11.1809 23.5328 10.957 22.9565 10.957Z" fill="#333333"/>
<path d="M1.04346 4.65234H22.9565C23.5328 4.65234 24 4.42849 24 4.15234C24 3.8762 23.5328 3.65234 22.9565 3.65234H1.04346C0.467168 3.65234 0 3.8762 0 4.15234C0 4.42849 0.467168 4.65234 1.04346 4.65234Z" fill="#333333"/>
<path d="M22.9565 18.261H1.04346C0.467168 18.261 0 18.4849 0 18.761C0 19.0371 0.467168 19.261 1.04346 19.261H22.9565C23.5328 19.261 24 19.0371 24 18.761C24 18.4849 23.5328 18.261 22.9565 18.261Z" fill="#333333"/>
</svg>
