<svg width="55" height="57" viewBox="0 0 55 57" fill="none" xmlns="http://www.w3.org/2000/svg">
<g opacity="0.8">
<rect x="0.5" width="54" height="57" rx="6" fill="#F9F9F9"/>
<g clip-path="url(#clip0_4011_13732)">
<path d="M34.5 16.5H20.5C19.1744 16.5016 17.9036 17.0289 16.9662 17.9662C16.0289 18.9036 15.5016 20.1744 15.5 21.5L15.5 35.5C15.5016 36.8256 16.0289 38.0964 16.9662 39.0338C17.9036 39.9711 19.1744 40.4984 20.5 40.5H34.5C35.8256 40.4984 37.0964 39.9711 38.0338 39.0338C38.9711 38.0964 39.4984 36.8256 39.5 35.5V21.5C39.4984 20.1744 38.9711 18.9036 38.0338 17.9662C37.0964 17.0289 35.8256 16.5016 34.5 16.5V16.5ZM20.5 18.5H34.5C35.2956 18.5 36.0587 18.8161 36.6213 19.3787C37.1839 19.9413 37.5 20.7044 37.5 21.5V35.5C37.4983 35.9455 37.3957 36.3848 37.2 36.785L28.037 27.622C27.5727 27.1576 27.0214 26.7892 26.4147 26.5378C25.808 26.2864 25.1577 26.1571 24.501 26.1571C23.8443 26.1571 23.194 26.2864 22.5873 26.5378C21.9806 26.7892 21.4293 27.1576 20.965 27.622L17.5 31.086V21.5C17.5 20.7044 17.8161 19.9413 18.3787 19.3787C18.9413 18.8161 19.7044 18.5 20.5 18.5ZM20.5 38.5C19.7044 38.5 18.9413 38.1839 18.3787 37.6213C17.8161 37.0587 17.5 36.2956 17.5 35.5V33.914L22.378 29.036C22.6566 28.7572 22.9874 28.5361 23.3515 28.3852C23.7156 28.2343 24.1059 28.1566 24.5 28.1566C24.8941 28.1566 25.2844 28.2343 25.6485 28.3852C26.0126 28.5361 26.3434 28.7572 26.622 29.036L35.785 38.2C35.3848 38.3957 34.9455 38.4983 34.5 38.5H20.5Z" fill="#212121"/>
<path d="M31.5 27C32.1922 27 32.8689 26.7947 33.4445 26.4101C34.0201 26.0256 34.4687 25.4789 34.7336 24.8394C34.9985 24.1999 35.0678 23.4961 34.9327 22.8172C34.7977 22.1383 34.4644 21.5146 33.9749 21.0251C33.4854 20.5356 32.8617 20.2023 32.1828 20.0673C31.5039 19.9322 30.8001 20.0015 30.1606 20.2664C29.5211 20.5313 28.9744 20.9799 28.5899 21.5555C28.2053 22.1311 28 22.8078 28 23.5C28 24.4283 28.3687 25.3185 29.0251 25.9749C29.6815 26.6313 30.5717 27 31.5 27ZM31.5 22C31.7967 22 32.0867 22.088 32.3334 22.2528C32.58 22.4176 32.7723 22.6519 32.8858 22.926C32.9994 23.2001 33.0291 23.5017 32.9712 23.7926C32.9133 24.0836 32.7704 24.3509 32.5607 24.5607C32.3509 24.7704 32.0836 24.9133 31.7926 24.9712C31.5017 25.0291 31.2001 24.9994 30.926 24.8858C30.6519 24.7723 30.4176 24.58 30.2528 24.3334C30.088 24.0867 30 23.7967 30 23.5C30 23.1022 30.158 22.7206 30.4393 22.4393C30.7206 22.158 31.1022 22 31.5 22Z" fill="#212121"/>
</g>
</g>
<defs>
<clipPath id="clip0_4011_13732">
<rect width="24" height="24" fill="white" transform="translate(15.5 16.5)"/>
</clipPath>
</defs>
</svg>
