<svg width="45" height="46" viewBox="0 0 45 46" fill="none" xmlns="http://www.w3.org/2000/svg">
<path d="M22.5495 45.0132H22.4505C10.0714 45.0132 0 34.9389 0 22.5561V22.4571C0 10.0744 10.0714 0 22.4505 0H22.5495C34.9286 0 45 10.0744 45 22.4571V22.5561C45 34.9389 34.9286 45.0132 22.5495 45.0132ZM22.4505 1.52365C10.9107 1.52365 1.5232 10.9139 1.5232 22.4571V22.5561C1.5232 34.0993 10.9107 43.4896 22.4505 43.4896H22.5495C34.0893 43.4896 43.4768 34.0993 43.4768 22.5561V22.4571C43.4768 10.9139 34.0893 1.52365 22.5495 1.52365H22.4505Z" fill="#00B0F2"/>
<path d="M8.99598 21.7654C9.05691 21.735 9.11787 21.706 9.17727 21.6786C10.21 21.2002 11.2564 20.7522 12.3014 20.3043C12.3577 20.3043 12.4521 20.2387 12.5054 20.2174C12.5862 20.1824 12.6669 20.1488 12.7477 20.1138C12.903 20.0468 13.0584 19.9812 13.2122 19.9142C13.523 19.7816 13.8322 19.6491 14.1429 19.5165C14.7628 19.2514 15.3828 18.9863 16.0027 18.7197C17.2426 18.1894 18.484 17.6577 19.7239 17.1274C20.9638 16.5972 22.2052 16.0655 23.4451 15.5352C24.685 15.005 25.9264 14.4732 27.1663 13.943C28.4062 13.4128 29.6476 12.881 30.8875 12.3508C31.1632 12.2319 31.4617 12.0552 31.7572 12.0034C32.0055 11.9592 32.2477 11.8739 32.4975 11.8267C32.9712 11.7368 33.4937 11.7002 33.9476 11.8967C34.1045 11.9653 34.2492 12.0613 34.3695 12.1817C34.9453 12.7515 34.8646 13.687 34.7427 14.4885C33.8943 20.0742 33.0459 25.6614 32.1959 31.2471C32.0801 32.0135 31.9217 32.8546 31.317 33.3391C30.8052 33.749 30.0771 33.7947 29.445 33.621C28.8129 33.4458 28.2554 33.0786 27.7086 32.7174C25.4405 31.2151 23.1709 29.7128 20.9029 28.2105C20.3637 27.854 19.7635 27.3877 19.7696 26.7402C19.7727 26.3501 20.0057 26.0027 20.2433 25.6934C22.2144 23.1215 25.0582 21.354 27.1739 18.901C27.4725 18.5551 27.707 17.9304 27.2973 17.7308C27.0536 17.612 26.7733 17.7735 26.5509 17.9274C23.7543 19.87 20.9593 21.8142 18.1626 23.7568C17.2502 24.3907 16.2937 25.0428 15.1939 25.1982C14.2099 25.3384 13.2199 25.0642 12.2679 24.7838C11.4697 24.5492 10.673 24.3084 9.87945 24.0601C9.45752 23.929 9.02188 23.7873 8.69591 23.4902C8.36995 23.1931 8.18262 22.6933 8.37911 22.2972C8.50249 22.0488 8.74164 21.8919 8.99297 21.7639L8.99598 21.7654Z" fill="#00B0F2"/>
</svg>
