<svg width="45" height="46" viewBox="0 0 45 46" fill="none" xmlns="http://www.w3.org/2000/svg">
<path d="M22.5495 45.0132H22.4505C10.0714 45.0132 0 34.9388 0 22.5561V22.4571C0 10.0744 10.0714 0 22.4505 0H22.5495C34.9286 0 45 10.0744 45 22.4571V22.5561C45 34.9388 34.9286 45.0132 22.5495 45.0132ZM22.4505 1.52365C10.9107 1.52365 1.5232 10.9139 1.5232 22.4571V22.5561C1.5232 34.0993 10.9107 43.4896 22.4505 43.4896H22.5495C34.0893 43.4896 43.4768 34.0993 43.4768 22.5561V22.4571C43.4768 10.9139 34.0893 1.52365 22.5495 1.52365H22.4505Z" fill="#00E510"/>
<path d="M26.7384 28.8668C21.1741 28.8668 16.6472 24.337 16.6456 18.7711C16.6472 17.3602 17.7957 16.2129 19.2031 16.2129C19.3478 16.2129 19.491 16.2251 19.6281 16.2495C19.9296 16.2997 20.216 16.4018 20.4795 16.5557C20.5176 16.5786 20.5435 16.6151 20.5496 16.6578L21.1376 20.3648C21.1452 20.4075 21.1315 20.4517 21.1025 20.4837C20.7781 20.8433 20.3638 21.1023 19.9022 21.2318L19.6799 21.2943L19.7636 21.5091C20.5222 23.4411 22.0667 24.9845 23.9997 25.7464L24.2144 25.8317L24.2769 25.6092C24.4063 25.1476 24.6653 24.7331 25.0248 24.4086C25.0507 24.3842 25.0857 24.372 25.1207 24.372C25.1284 24.372 25.136 24.372 25.1451 24.3736L28.8511 24.9617C28.8952 24.9693 28.9318 24.9937 28.9546 25.0318C29.107 25.2954 29.209 25.5833 29.2608 25.885C29.2852 26.0191 29.2958 26.1608 29.2958 26.3086C29.2958 27.718 28.1489 28.8653 26.7384 28.8668Z" fill="#00E510"/>
<path d="M36.6056 21.2854C36.3056 17.8937 34.7519 14.7474 32.231 12.4268C29.6949 10.0926 26.4047 8.80664 22.9638 8.80664C15.4118 8.80664 9.26718 14.9531 9.26718 22.5073C9.26718 25.0427 9.96632 27.5125 11.29 29.6639L8.33801 36.2004L17.7895 35.1932C19.433 35.8667 21.1725 36.208 22.9623 36.208C23.433 36.208 23.9158 36.1836 24.4002 36.1333C24.8267 36.0876 25.2578 36.0206 25.6812 35.9353C32.0056 34.6569 36.6224 29.0423 36.6589 22.5805V22.5073C36.6589 22.0959 36.6407 21.6845 36.6041 21.2869L36.6056 21.2854ZM18.1535 32.3242L12.9244 32.8819L14.4857 29.4217L14.1734 29.0027C14.1506 28.9722 14.1277 28.9417 14.1018 28.9067C12.7462 27.0341 12.0303 24.8218 12.0303 22.5088C12.0303 16.4782 16.935 11.5721 22.9638 11.5721C28.6118 11.5721 33.3993 15.98 33.8608 21.6068C33.8852 21.9085 33.8989 22.2117 33.8989 22.5104C33.8989 22.5957 33.8974 22.6795 33.8958 22.7694C33.7801 27.8142 30.2569 32.0987 25.3278 33.1896C24.9516 33.2734 24.5662 33.3374 24.1824 33.3786C23.7833 33.4243 23.3736 33.4471 22.9669 33.4471C21.5183 33.4471 20.1109 33.1668 18.7811 32.6122C18.6334 32.5527 18.4886 32.4888 18.3531 32.4232L18.1551 32.3272L18.1535 32.3242Z" fill="#00E510"/>
</svg>
