<svg width="45" height="46" viewBox="0 0 45 46" fill="none" xmlns="http://www.w3.org/2000/svg">
<path d="M22.5 45.0133C10.093 45.0133 0 34.9173 0 22.5066C0 10.096 10.093 0 22.5 0C34.907 0 45 10.096 45 22.5066C45 34.9173 34.907 45.0133 22.5 45.0133ZM22.5 1.52784C10.9361 1.52784 1.52739 10.9393 1.52739 22.5066C1.52739 34.0739 10.9361 43.4854 22.5 43.4854C34.0639 43.4854 43.4726 34.0739 43.4726 22.5066C43.4726 10.9393 34.0639 1.52784 22.5 1.52784Z" fill="#FF0209"/>
<path d="M36.1869 18.0009C36.0159 16.3493 35.6478 14.5235 34.293 13.564C33.2437 12.82 31.8644 12.7925 30.5768 12.794C27.855 12.7955 25.1317 12.7986 22.4099 12.8001C19.7919 12.8032 17.174 12.8047 14.556 12.8077C13.4624 12.8093 12.3993 12.7237 11.3836 13.1973C10.5115 13.6037 9.82873 14.3768 9.41786 15.237C8.84814 16.4333 8.72901 17.7885 8.66028 19.1116C8.53351 21.521 8.54725 23.9365 8.69846 26.3444C8.80996 28.1014 9.09253 30.0433 10.4504 31.1632C11.654 32.1548 13.3524 32.2037 14.9134 32.2052C19.8683 32.2098 24.8247 32.2144 29.7811 32.2175C30.4165 32.219 31.0793 32.2068 31.727 32.1365C33.0008 31.999 34.2151 31.6338 35.0337 30.6896C35.8601 29.7378 36.0724 28.4131 36.1976 27.1587C36.5031 24.1153 36.5 21.0428 36.1869 18.0009ZM19.5445 26.7722V18.2392L26.931 22.5049L19.5445 26.7722Z" fill="#FF0209"/>
</svg>
